<?xml version="1.0" encoding="UTF-8" standalone="no"?>
<svg
   xmlns:dc="http://purl.org/dc/elements/1.1/"
   xmlns:cc="http://creativecommons.org/ns#"
   xmlns:rdf="http://www.w3.org/1999/02/22-rdf-syntax-ns#"
   xmlns:svg="http://www.w3.org/2000/svg"
   xmlns="http://www.w3.org/2000/svg"
   id="svg3686"
   version="1.1"
   viewBox="0 0 52.916665 52.916668"
   height="200"
   width="200">
  <title
     id="title3688">Logo Pizzeria Mario Friedrichshain</title>
  <defs
     id="defs3680" />
  <metadata
     id="metadata3683">
    <rdf:RDF>
      <cc:Work
         rdf:about="">
        <dc:format>image/svg+xml</dc:format>
        <dc:type
           rdf:resource="http://purl.org/dc/dcmitype/StillImage" />
        <dc:title>Logo Pizzeria Mario Friedrichshain</dc:title>
      </cc:Work>
    </rdf:RDF>
  </metadata>
  <g
     transform="translate(0,-244.08332)"
     id="layer1">
    <path
       id="path3690"
       d="m 26.292662,251.43046 a 19.210007,19.210007 0 0 0 -19.2101026,19.2101 19.210007,19.210007 0 0 0 19.2101026,19.2101 19.210007,19.210007 0 0 0 19.2101,-19.2101 19.210007,19.210007 0 0 0 -19.2101,-19.2101 z m 0,2.71862 A 16.491327,16.491327 0 0 1 42.784143,270.64056 16.491327,16.491327 0 0 1 26.292662,287.13204 16.491327,16.491327 0 0 1 9.8011794,270.64056 16.491327,16.491327 0 0 1 26.292662,254.14908 Z"
       style="fill:#df0024;fill-opacity:1;stroke-width:0.25917462" />
    <path
       id="flowRoot4529"
       d="m 3.2887325,272.42598 c -0.8046883,0.3045 -0.554162,1.27044 -1.2003984,1.71299 -0.4226539,0.76773 0.2934291,1.52296 0.734777,1.89838 0.012964,2.11136 0.210504,4.26219 0.4426287,6.33173 1.0098279,1.77933 2.708939,-0.59478 1.8982383,-1.86551 -0.4718146,-0.9718 0.1029154,-1.46412 0.9345395,-1.82322 1.6101198,-1.04523 3.9236664,-2.84482 2.9894543,-5.0374 -0.8646459,-1.75576 -3.2332798,-1.35642 -4.7240016,-0.98614 -0.2891908,-0.25348 -0.7067134,-0.39093 -1.0752378,-0.23083 z M 16.916034,268.1211 c -1.45234,0.5543 -2.79256,1.46565 -4.040193,2.32795 -0.731542,1.10576 0.844992,2.46472 1.81011,1.51161 0.631278,-0.49191 1.325414,-1.04711 1.971271,-1.42962 -1.188584,2.44442 -2.843345,4.71221 -3.81899,7.237 -0.256615,1.14873 1.152574,1.84096 2.00128,1.11796 2.159298,-1.39033 5.423514,-2.1328 6.03248,-5.02112 -0.14188,-1.51092 -2.073505,-0.74503 -2.267971,0.31977 -0.639682,0.78453 -1.616923,1.14446 -2.484197,1.60939 1.077425,-2.31462 2.758094,-4.40647 3.582136,-6.8152 0.02425,-1.53401 -1.841462,-1.44733 -2.785926,-0.85774 z m 8.615248,-3.1357 c -1.45234,0.55431 -2.79256,1.46566 -4.040193,2.32796 -0.731542,1.10576 0.844992,2.46472 1.81011,1.5116 0.631279,-0.4919 1.325415,-1.04711 1.971271,-1.42962 -1.188584,2.44443 -2.843344,4.71221 -3.818989,7.23701 -0.256616,1.14873 1.152574,1.84096 2.00128,1.11796 2.159298,-1.39033 5.423513,-2.13281 6.032478,-5.02112 -0.141879,-1.51092 -2.073504,-0.74503 -2.267969,0.31977 -0.639682,0.78452 -1.616924,1.14445 -2.484198,1.60939 1.077425,-2.31463 2.758094,-4.40648 3.582136,-6.81521 0.02425,-1.534 -1.841462,-1.44732 -2.785926,-0.85774 z m 10.962085,-3.98814 c -1.338592,0.49737 -0.521383,2.0652 -0.336134,2.99914 0.396418,2.00021 0.0462,4.2094 0.783748,6.11243 0.707122,0.99136 2.225985,-0.14556 1.732052,-1.18225 -0.02414,-0.92835 -0.538441,-2.52931 0.898187,-2.35953 1.518501,-0.029 2.038509,2.16901 3.528328,1.91839 1.215761,-0.44989 0.782618,-2.10662 -0.227544,-2.55006 -0.611665,-0.51701 -1.281223,-1.0048 -2.058625,-1.23433 1.151509,-1.05889 2.07856,-3.35753 0.391137,-4.38634 -1.602763,-0.87183 -3.144256,0.54251 -4.711149,0.68255 z m -26.221298,9.81537 c -1.5618728,0.63636 -0.4481871,2.60216 -0.6373215,3.82361 0.2231947,1.76668 0.091592,3.70417 0.7436335,5.35624 0.935513,1.06691 2.385293,-0.51756 1.78165,-1.59413 -0.686708,-2.27094 -0.149878,-4.7082 -0.656001,-6.97659 -0.224776,-0.41675 -0.768589,-0.76805 -1.231961,-0.60913 z m 33.849984,-12.32039 c -1.561874,0.63636 -0.448189,2.60217 -0.637324,3.82361 0.223195,1.76668 0.09159,3.70417 0.743634,5.35625 0.935513,1.0669 2.385294,-0.51757 1.78165,-1.59414 -0.686709,-2.27094 -0.149878,-4.7082 -0.656,-6.97658 -0.224776,-0.41675 -0.768591,-0.76805 -1.23196,-0.60914 z m 5.32712,-1.82128 c -2.296836,1.34388 -2.59101,4.40558 -2.986071,6.77989 -0.142607,1.17589 0.0099,3.50571 1.680261,3.25242 1.496411,-0.6339 -0.09539,-2.51434 0.606834,-3.39925 0.791787,-0.32189 1.441102,-0.90538 2.182123,-1.32242 0.169204,1.04577 -0.510628,3.29538 1.22144,3.24182 1.460077,-0.33909 0.818713,-2.14048 0.92609,-3.18907 -0.29302,-1.84213 -0.161939,-4.54276 -2.159772,-5.4634 -0.481659,-0.1653 -1.009672,-0.0973 -1.470905,0.10001 z m -15.598991,5.73177 c -0.932945,0.1705 -1.636738,1.35813 -2.520742,1.22539 -1.556867,-0.19994 -1.460602,1.83384 -1.369451,2.85974 0.339553,1.94036 -0.09095,3.98949 0.543133,5.86325 0.989324,1.2644 2.68245,-0.0902 3.58169,-0.80439 1.024986,-0.48755 2.906416,-3.09543 0.759437,-3.16981 -1.12697,0.27374 -1.568457,1.64328 -2.588236,2.02379 -0.423317,-1.14447 1.233277,-1.45888 1.720528,-2.26903 1.0476,-0.30234 2.428417,-2.48071 0.623393,-2.65508 -0.974455,0.28447 -1.673689,1.13644 -2.507557,1.67037 -0.398937,-1.76844 1.75224,-2.29798 2.851275,-3.1246 0.508739,-0.18692 1.149084,-1.02408 -0.0011,-0.567 0.393938,-0.98296 0.943386,0.39774 0.762745,-0.74181 -0.270116,-0.81819 -1.27047,-0.58966 -1.855124,-0.31082 z M 5.8423418,274.48636 c 0.5392202,-0.4063 2.2910319,-0.18486 1.2231943,0.70863 -0.6183316,0.72572 -1.3609346,1.29703 -2.1720229,1.82387 0.1033357,-1.01226 -0.5388655,-2.44256 0.9488286,-2.5325 z M 39.391746,262.34457 c 1.220855,-0.56036 0.09965,0.84707 -0.213063,1.19217 -0.78027,1.18177 -1.072473,0.69619 -0.980488,-0.58995 0.279669,-0.29909 0.797344,-0.45211 1.193551,-0.60222 z m 10.848591,-3.61239 c 0.579664,0.74498 0.307097,1.40227 -0.626384,1.62343 -0.92108,0.61844 -0.0081,-1.05007 0.357752,-1.42994 0.07539,-0.0656 0.171642,-0.18126 0.268632,-0.19349 z"
       style="font-style:normal;font-variant:normal;font-weight:normal;font-stretch:normal;font-size:40px;line-height:1.25;font-family:'MV Boli';-inkscape-font-specification:'MV Boli';letter-spacing:0px;word-spacing:0px;fill:#fffffa;fill-opacity:1;stroke:none;stroke-width:0.27742884" />
    <g
       id="flowRoot4502"
       style="font-style:normal;font-variant:normal;font-weight:normal;font-stretch:normal;font-size:40px;line-height:1.25;font-family:'MV Boli';-inkscape-font-specification:'MV Boli';letter-spacing:0px;word-spacing:0px;fill:#006221;fill-opacity:1;stroke:none"
       transform="matrix(0.26069782,-0.09488625,0.09488625,0.26069782,-4.2862737,261.04183)"
       aria-label="PIZZERIA">
      <path
         id="path4549"
         style="fill:#006221;fill-opacity:1"
         d="m 1.3027344,80.676315 q 0.078125,-0.351562 0.2148437,-0.664062 0.15625,-0.3125 0.3320313,-0.703125 0.1757812,-0.390625 0.3710937,-0.917969 0.1953125,-0.546875 0.390625,-1.347656 l 0.7617188,-3.125 q 0.2734375,-1.132813 0.5664062,-2.304688 0.2929688,-1.191406 0.6835938,-2.675781 0.3125,-1.191406 0.7421875,-2.480469 0.4492187,-1.308593 0.9179687,-2.695312 0.4882813,-1.386719 0.9765625,-2.851563 0.4882813,-1.464843 0.8789063,-3.027343 0.019531,-0.05859 0.019531,-0.15625 0,-0.15625 -0.097656,-0.195313 -0.097656,-0.03906 -0.2539063,-0.03906 -0.4882812,0 -0.8203125,-0.136719 -0.3125,-0.15625 -0.5078125,-0.390625 -0.1757812,-0.234375 -0.2539062,-0.527344 -0.078125,-0.3125 -0.078125,-0.644531 0,-0.859375 0.1953125,-1.367188 0.2148437,-0.527343 0.5273437,-0.800781 0.3320313,-0.292969 0.703125,-0.410156 0.390625,-0.136719 0.7421875,-0.214844 0.3710938,-0.07813 0.6445313,-0.15625 0.2734375,-0.09766 0.390625,-0.332031 0.1953125,-0.410156 0.3515625,-0.859375 0.1757812,-0.46875 0.4296871,-0.859375 0.253907,-0.390625 0.625,-0.644531 0.371094,-0.253907 0.976563,-0.253907 0.429687,0 0.761719,0.234375 0.332031,0.234375 0.566406,0.585938 0.253906,0.351562 0.429687,0.761719 0.175782,0.390625 0.3125,0.722656 2.011719,0.05859 3.476563,0.234375 1.484375,0.175781 2.226562,0.3125 1.464844,0.273437 2.929688,0.820312 1.484375,0.546875 2.65625,1.425782 1.191406,0.859375 1.933594,2.050781 0.761718,1.171875 0.761718,2.695312 0,0.78125 -0.175781,1.621094 l -0.136719,0.683594 q -0.15625,0.820312 -0.664062,1.523437 -0.488281,0.703125 -1.113281,1.269532 -1.738282,1.601562 -3.808594,2.695312 -2.070313,1.074219 -4.316406,1.816406 -2.246094,0.742188 -4.589844,1.25 -2.34375,0.507813 -4.6289064,0.957032 l -0.546875,0.07813 q -0.4492187,0.05859 -0.5273437,0.332031 -0.390625,1.347656 -0.625,2.363281 -0.2148438,1.015625 -0.4101563,1.953125 -0.1953125,0.917969 -0.390625,1.855469 -0.1953125,0.917969 -0.4882812,2.050781 -0.097656,0.371094 -0.3515625,0.878906 -0.2539063,0.507813 -0.6054688,0.957032 -0.3515625,0.449218 -0.8203125,0.761718 -0.4492187,0.332032 -0.9570312,0.332032 -0.3515625,0 -0.6054688,-0.195313 -0.2539062,-0.195312 -0.4296875,-0.507812 -0.15625,-0.292969 -0.2539062,-0.644532 -0.078125,-0.351562 -0.078125,-0.664062 0,-0.117188 0,-0.214844 0,-0.117187 0.039063,-0.214844 z M 9.0566406,66.242722 q -0.039063,0.136718 -0.1171875,0.351562 -0.058594,0.195313 -0.1171875,0.429688 -0.058594,0.214843 -0.097656,0.410156 -0.039063,0.175781 -0.039063,0.253906 0,0.09766 0.019531,0.175781 0.039063,0.05859 0.1367188,0.05859 0.058594,0 0.3710937,-0.03906 0.3125,-0.05859 0.7421875,-0.136719 0.4492189,-0.07813 0.9570309,-0.175781 0.507813,-0.09766 0.976563,-0.195313 1.269531,-0.273437 2.714844,-0.683594 1.445312,-0.429687 2.871093,-0.957031 1.445313,-0.527344 2.753907,-1.132812 1.308593,-0.605469 2.324218,-1.289063 1.074219,-0.722656 1.71875,-1.445312 0.644532,-0.722657 0.644532,-1.542969 0,-0.488281 -0.136719,-0.859375 -0.117188,-0.390625 -0.273438,-0.703125 -0.585937,-0.957031 -1.464843,-1.503906 -0.878907,-0.546875 -1.914063,-0.820313 -1.035156,-0.273437 -2.167969,-0.351562 -1.132812,-0.07813 -2.226562,-0.07813 -0.292969,0 -0.898438,0.03906 -0.585937,0.03906 -1.25,0.09766 -0.644531,0.05859 -1.210937,0.15625 -0.546875,0.07813 -0.742188,0.195313 -0.09766,0.05859 -0.175781,0.195312 -0.05859,0.136719 -0.09766,0.234375 -0.15625,0.390625 -0.429688,1.09375 -0.273437,0.683594 -0.585937,1.542969 -0.3125,0.859375 -0.664063,1.816406 -0.332031,0.957032 -0.644531,1.875 -0.3124999,0.898438 -0.5859374,1.699219 -0.2539062,0.78125 -0.390625,1.289063 z" />
      <path
         id="path4551"
         style="fill:#006221;fill-opacity:1"
         d="m 30.501953,70.383347 q 0.175781,-0.761719 0.410156,-1.679688 0.253907,-0.9375 0.527344,-1.933594 0.292969,-0.996093 0.585938,-2.011718 0.292968,-1.015625 0.566406,-1.953125 0.292969,-0.9375 0.527344,-1.738282 0.234375,-0.820312 0.410156,-1.386718 0.371094,-1.269532 0.703125,-2.539063 0.332031,-1.289062 0.644531,-2.695312 0.390625,-0.761719 1.054688,-1.074219 0.664062,-0.332031 1.445312,-0.332031 0.625,0.332031 0.976563,0.917968 0.371093,0.566407 0.371093,1.289063 0,0.507812 -0.175781,1.171875 -0.15625,0.644531 -0.410156,1.40625 -0.253906,0.742187 -0.566406,1.582031 -0.3125,0.820313 -0.605469,1.699219 -0.546875,1.601562 -1.09375,3.203125 -0.546875,1.601562 -1.074219,3.378906 -0.136719,0.46875 -0.292969,0.9375 -0.15625,0.46875 -0.332031,1.015625 -0.15625,0.546875 -0.351562,1.230469 -0.195313,0.664062 -0.390625,1.542969 -0.234375,1.035156 -0.410157,2.089843 -0.175781,1.035157 -0.332031,2.089844 -0.15625,1.054688 -0.351562,2.128906 -0.195313,1.074219 -0.46875,2.167969 -0.09766,0.390625 -0.351563,0.703125 -0.234375,0.292969 -0.546875,0.507813 -0.3125,0.214843 -0.664062,0.332031 -0.351563,0.117187 -0.664063,0.117187 -0.3125,0 -0.605469,-0.05859 -0.273437,-0.03906 -0.429687,-0.214844 -0.234375,-0.253906 -0.371094,-0.566406 -0.136719,-0.3125 -0.136719,-0.664063 0,-0.09766 0,-0.175781 0.01953,-0.09766 0.03906,-0.195313 z" />
      <path
         id="path4553"
         style="fill:#006221;fill-opacity:1"
         d="m 38.880859,79.484909 q 0.214844,-0.878906 0.78125,-1.601562 0.585938,-0.722657 1.210938,-1.171875 0.214844,-0.136719 0.625,-0.488282 0.429687,-0.371093 0.976562,-0.839843 0.546875,-0.488282 1.171875,-1.035157 0.625,-0.566406 1.25,-1.132812 0.625,-0.566406 1.191407,-1.074219 0.585937,-0.507812 1.035156,-0.898437 3.125,-2.734375 5.625,-4.921875 2.519531,-2.207032 4.453125,-3.90625 1.953125,-1.71875 3.359375,-2.949219 1.425781,-1.25 2.382812,-2.070313 0.957032,-0.820312 1.464844,-1.25 0.507813,-0.449218 0.644531,-0.566406 -0.449218,-0.05859 -0.9375,-0.07813 -0.488281,-0.01953 -0.917968,-0.01953 -0.898438,0 -1.699219,0.07813 -0.78125,0.05859 -1.503906,0.195312 -0.722657,0.117188 -1.40625,0.273438 -0.683594,0.15625 -1.386719,0.332031 -0.976563,0.253906 -1.894531,0.507813 -0.898438,0.253906 -1.679688,0.488281 -0.761719,0.234375 -1.386719,0.449219 -0.605468,0.195312 -1.015625,0.332031 -0.449218,0.15625 -1.035156,0.332031 -0.566406,0.15625 -1.328125,0.15625 -0.507812,0 -0.878906,-0.214844 -0.351563,-0.214843 -0.585938,-0.546875 -0.234375,-0.332031 -0.351562,-0.703125 -0.09766,-0.390625 -0.09766,-0.742187 0,-0.351563 0.09766,-0.703125 0.117187,-0.371094 0.3125,-0.683594 0.214844,-0.3125 0.507812,-0.507812 0.292969,-0.195313 0.683594,-0.195313 0.292969,0 0.917969,-0.03906 0.644531,-0.05859 1.347656,-0.175782 0.175781,-0.01953 0.683594,-0.136718 0.527344,-0.136719 1.230469,-0.292969 0.703125,-0.15625 1.484375,-0.332031 0.78125,-0.195313 1.484375,-0.371094 0.976562,-0.234375 1.816406,-0.410156 0.859375,-0.175782 1.855469,-0.273438 0.996093,-0.09766 2.285156,-0.136719 1.308594,-0.05859 3.183594,-0.05859 1.074218,0 1.835937,0.07813 0.78125,0.05859 1.328125,0.253906 0.566406,0.195312 0.9375,0.546875 0.390625,0.351562 0.683594,0.917969 0.117187,0.234375 0.15625,0.429687 0.03906,0.175781 0.03906,0.332031 0,0.566407 -0.195312,1.015625 -0.195313,0.449219 -0.507813,0.820313 -0.3125,0.371094 -0.683593,0.683594 -0.351563,0.3125 -0.683594,0.605468 -5.78125,5.019532 -11.464844,10 -5.683594,4.980469 -11.386719,9.960938 1.308594,-0.136719 2.949219,-0.292969 1.640625,-0.15625 3.417969,-0.351562 1.796875,-0.195313 3.632812,-0.449219 1.855469,-0.253906 3.574219,-0.605469 0.742188,-0.195312 1.386719,-0.429687 0.664062,-0.253907 1.171875,-0.46875 0.507812,-0.234375 0.839844,-0.410157 0.351562,-0.195312 0.46875,-0.273437 0.214843,-0.09766 0.664062,-0.46875 0.449219,-0.371094 0.996094,-0.78125 0.566406,-0.410156 1.171875,-0.722656 0.605469,-0.332032 1.152344,-0.332032 0.46875,0 0.878906,0.3125 0.410156,0.3125 0.410156,0.859375 0,0.390625 -0.332031,0.878907 -0.3125,0.46875 -0.859375,1.015625 -0.546875,0.546875 -1.308594,1.132812 -0.742187,0.566406 -1.582031,1.113281 -0.136719,0.09766 -0.390625,0.234375 -0.234375,0.136719 -0.546875,0.3125 -0.292969,0.15625 -0.625,0.3125 -0.3125,0.15625 -0.605469,0.273438 -2.070312,0.839844 -3.789062,1.230469 -1.699219,0.371093 -3.222657,0.546875 -1.503906,0.175781 -2.929687,0.273437 -1.40625,0.09766 -2.890625,0.351563 -0.917969,0.15625 -2.03125,0.371093 -1.113281,0.195313 -2.148438,0.371094 -1.035156,0.175781 -1.875,0.292969 -0.820312,0.136719 -1.132812,0.136719 -1.328125,0 -1.953125,-0.507813 -0.605469,-0.488281 -0.605469,-1.367187 0,-0.214844 0.01953,-0.410157 0.01953,-0.214843 0.07813,-0.410156 z" />
      <path
         id="path4555"
         style="fill:#006221;fill-opacity:1"
         d="m 71.927734,79.484909 q 0.214844,-0.878906 0.78125,-1.601562 0.585938,-0.722657 1.210938,-1.171875 0.214844,-0.136719 0.625,-0.488282 0.429687,-0.371093 0.976562,-0.839843 0.546875,-0.488282 1.171875,-1.035157 0.625,-0.566406 1.25,-1.132812 0.625,-0.566406 1.191407,-1.074219 0.585937,-0.507812 1.035156,-0.898437 3.125,-2.734375 5.625,-4.921875 2.519531,-2.207032 4.453125,-3.90625 1.953125,-1.71875 3.359375,-2.949219 1.425781,-1.25 2.382812,-2.070313 0.957032,-0.820312 1.464844,-1.25 0.507813,-0.449218 0.644531,-0.566406 -0.449218,-0.05859 -0.9375,-0.07813 -0.488281,-0.01953 -0.917968,-0.01953 -0.898438,0 -1.699219,0.07813 -0.78125,0.05859 -1.503906,0.195312 -0.722657,0.117188 -1.40625,0.273438 -0.683594,0.15625 -1.386719,0.332031 -0.976563,0.253906 -1.894531,0.507813 -0.898438,0.253906 -1.679688,0.488281 -0.761719,0.234375 -1.386719,0.449219 -0.605468,0.195312 -1.015625,0.332031 -0.449218,0.15625 -1.035156,0.332031 -0.566406,0.15625 -1.328125,0.15625 -0.507812,0 -0.878906,-0.214844 -0.351563,-0.214843 -0.585938,-0.546875 -0.234375,-0.332031 -0.351562,-0.703125 -0.09766,-0.390625 -0.09766,-0.742187 0,-0.351563 0.09766,-0.703125 0.117187,-0.371094 0.3125,-0.683594 0.214844,-0.3125 0.507812,-0.507812 0.292969,-0.195313 0.683594,-0.195313 0.292969,0 0.917969,-0.03906 0.644531,-0.05859 1.347656,-0.175782 0.175781,-0.01953 0.683594,-0.136718 0.527344,-0.136719 1.230469,-0.292969 0.703125,-0.15625 1.484375,-0.332031 0.78125,-0.195313 1.484375,-0.371094 0.976562,-0.234375 1.816406,-0.410156 0.859375,-0.175782 1.855469,-0.273438 0.996093,-0.09766 2.285156,-0.136719 1.308594,-0.05859 3.183594,-0.05859 1.074218,0 1.835937,0.07813 0.781247,0.05859 1.328127,0.253906 0.5664,0.195312 0.9375,0.546875 0.39062,0.351562 0.68359,0.917969 0.11719,0.234375 0.15625,0.429687 0.0391,0.175781 0.0391,0.332031 0,0.566407 -0.19531,1.015625 -0.19531,0.449219 -0.50781,0.820313 -0.3125,0.371094 -0.68359,0.683594 -0.35157,0.3125 -0.6836,0.605468 -5.781248,5.019532 -11.464842,10 -5.683594,4.980469 -11.386719,9.960938 1.308594,-0.136719 2.949219,-0.292969 1.640625,-0.15625 3.417969,-0.351562 1.796875,-0.195313 3.632812,-0.449219 1.855469,-0.253906 3.574219,-0.605469 0.742188,-0.195312 1.386719,-0.429687 0.664062,-0.253907 1.171875,-0.46875 0.507812,-0.234375 0.839844,-0.410157 0.351562,-0.195312 0.46875,-0.273437 0.214843,-0.09766 0.664062,-0.46875 0.449219,-0.371094 0.996094,-0.78125 0.566406,-0.410156 1.171875,-0.722656 0.605469,-0.332032 1.152344,-0.332032 0.46875,0 0.878909,0.3125 0.41015,0.3125 0.41015,0.859375 0,0.390625 -0.33203,0.878907 -0.3125,0.46875 -0.859373,1.015625 -0.546875,0.546875 -1.308594,1.132812 -0.742187,0.566406 -1.582031,1.113281 -0.136719,0.09766 -0.390625,0.234375 -0.234375,0.136719 -0.546875,0.3125 -0.292969,0.15625 -0.625,0.3125 -0.3125,0.15625 -0.605469,0.273438 -2.070312,0.839844 -3.789062,1.230469 -1.699219,0.371093 -3.222657,0.546875 -1.503906,0.175781 -2.929687,0.273437 -1.40625,0.09766 -2.890625,0.351563 -0.917969,0.15625 -2.03125,0.371093 -1.113281,0.195313 -2.148438,0.371094 -1.035156,0.175781 -1.875,0.292969 -0.820312,0.136719 -1.132812,0.136719 -1.328125,0 -1.953125,-0.507813 -0.605469,-0.488281 -0.605469,-1.367187 0,-0.214844 0.01953,-0.410157 0.01953,-0.214843 0.07813,-0.410156 z" />
      <path
         id="path4557"
         style="fill:#006221;fill-opacity:1"
         d="m 105.79492,80.148972 q 0,-0.683594 0.19531,-1.445313 0.66407,-2.65625 1.54297,-5.195312 0.89844,-2.558594 1.6211,-5.078125 0.72265,-2.519532 1.1914,-4.238282 0.48828,-1.738281 0.85938,-2.96875 0.37109,-1.25 0.68359,-2.148437 0.3125,-0.898438 0.6836,-1.777344 0.23437,-0.527344 0.50781,-1.09375 0.29297,-0.566406 0.625,-1.035156 0.33203,-0.488281 0.68359,-0.78125 0.3711,-0.3125 0.76172,-0.3125 0.80078,0 1.21094,0.273437 0.42969,0.253907 0.52734,0.46875 l 0.17578,0.800782 q 0.29297,-0.01953 0.76172,-0.09766 0.46875,-0.09766 0.9375,-0.195312 0.48828,-0.09766 0.89844,-0.195313 0.41016,-0.09766 0.625,-0.175781 1.28906,-0.351562 2.38281,-0.605469 1.09375,-0.253906 2.07031,-0.410156 0.9961,-0.175781 1.89454,-0.253906 0.89843,-0.07813 1.8164,-0.07813 0.89844,0 1.46485,0.09766 0.5664,0.09766 0.89843,0.273438 0.33203,0.15625 0.44922,0.390625 0.13672,0.214843 0.13672,0.46875 0,0.234375 -0.13672,0.507812 -0.11719,0.253906 -0.41015,0.488281 -0.29297,0.234375 -0.76172,0.410157 -0.46875,0.175781 -1.17188,0.234375 -0.17578,0.03906 -0.82031,0.15625 -0.625,0.09766 -1.36719,0.234375 -0.74219,0.117187 -1.40625,0.234375 -0.66406,0.117187 -0.91797,0.175781 h 0.0195 q -0.11718,0.01953 -0.5664,0.15625 -0.42969,0.117187 -1.05469,0.292969 -0.625,0.15625 -1.36719,0.371093 -0.72265,0.214844 -1.44531,0.429688 -0.70312,0.195312 -1.30859,0.390625 -0.60547,0.175781 -0.97657,0.292969 -1.1914,0.46875 -1.875,1.25 -0.66406,0.761718 -1.05468,1.71875 -0.0781,0.175781 -0.23438,0.605468 -0.15625,0.410157 -0.35156,0.957032 -0.17578,0.527343 -0.39063,1.132812 -0.21484,0.605469 -0.41015,1.152344 -0.19531,0.546875 -0.35156,0.996094 -0.13672,0.449218 -0.19532,0.664062 -0.0586,0.195313 -0.0781,0.351563 -0.0195,0.15625 -0.0195,0.234375 0,0.117187 0.0586,0.117187 0.29297,0 1.21094,-0.253906 0.9375,-0.273438 2.16797,-0.664063 1.25,-0.390625 2.65625,-0.839843 1.42578,-0.449219 2.71484,-0.839844 1.30859,-0.390625 2.32422,-0.644531 1.01562,-0.273438 1.46484,-0.273438 0.6836,0 0.91797,0.234375 0.23438,0.214844 0.23438,0.488281 0,0.703125 -0.50782,1.230469 -0.48828,0.527344 -1.23046,0.917969 -0.23438,0.117187 -0.87891,0.351562 -0.625,0.214844 -1.36719,0.449219 -0.72265,0.234375 -1.38672,0.449219 -0.66406,0.214844 -0.95703,0.3125 -1.91406,0.742187 -3.125,1.230469 -1.1914,0.46875 -1.93359,0.78125 -0.74219,0.292968 -1.15235,0.449218 -0.39062,0.15625 -0.74218,0.273438 -0.33203,0.09766 -0.74219,0.195312 -0.41016,0.09766 -1.13281,0.273438 -0.17578,0.410156 -0.41016,1.25 -0.23437,0.820312 -0.44922,1.71875 -0.21484,0.878906 -0.37109,1.640625 -0.13672,0.761719 -0.13672,1.054687 0,0.351563 0.0977,0.527344 0.0977,0.15625 0.23437,0.214844 0.13672,0.05859 0.27344,0.05859 0.13672,0 0.21484,0 0.9375,0 2.2461,-0.273438 1.32812,-0.273437 2.61718,-0.722656 1.23047,-0.429688 2.14844,-0.9375 0.91797,-0.507813 1.71875,-0.9375 0.82031,-0.449219 1.58203,-0.742188 0.78125,-0.3125 1.69922,-0.332031 0.19531,0 0.44922,0.03906 0.27344,0.03906 0.50781,0.15625 0.23438,0.09766 0.3711,0.273437 0.15625,0.175781 0.11718,0.449219 -0.0781,0.566406 -0.5664,1.113281 -0.48828,0.546875 -1.23047,1.054688 -0.74219,0.507812 -1.66016,0.976562 -0.91797,0.46875 -1.875,0.898438 -0.95703,0.410156 -1.875,0.761718 -0.91797,0.332032 -1.64062,0.585938 -1.79688,0.625 -3.4961,0.917969 -1.69922,0.292968 -3.04687,0.292968 -1.48438,0 -2.28516,-0.566406 -0.78125,-0.546875 -0.78125,-1.835937 z" />
      <path
         id="path4559"
         style="fill:#006221;fill-opacity:1"
         d="m 130.4043,79.133347 q 1.11328,-4.472657 2.30468,-8.828125 1.19141,-4.375 2.30469,-8.847657 0.13672,-0.585937 0.27344,-1.113281 0.13672,-0.527344 0.25391,-1.054687 0.11718,-0.527344 0.17578,-1.054688 0.0781,-0.546875 0.0781,-1.132812 0,-0.449219 -0.0586,-0.820313 -0.0586,-0.371094 -0.0586,-0.839844 0,-0.449218 0.11719,-0.957031 0.29297,-1.191406 0.82031,-1.777344 0.54688,-0.585937 1.64063,-0.585937 0.44922,0 0.85937,0.09766 0.42969,0.07813 0.83985,0.195313 0.44922,0.136718 0.91797,0.234375 0.48828,0.09766 0.97656,0.09766 0.39062,0 0.76172,-0.03906 0.37109,-0.03906 0.83984,-0.07813 0.48828,-0.03906 1.13281,-0.07813 0.66407,-0.03906 1.66016,-0.03906 0.54688,0 1.28906,0.03906 0.74219,0.03906 1.54297,0.175782 0.80078,0.136718 1.6211,0.410156 0.82031,0.253906 1.52343,0.703125 0.72266,0.449219 1.26953,1.113281 0.54688,0.644531 0.82032,1.5625 0.13672,0.449219 0.17578,0.820313 0.0586,0.371093 0.0586,0.722656 0,1.191406 -0.60547,2.34375 -0.68359,1.308594 -1.85547,2.460937 -1.15234,1.132813 -2.69531,2.148438 -0.60547,0.410156 -1.40625,0.859375 -0.80078,0.429687 -1.58203,0.839844 -0.76172,0.390625 -1.38672,0.722656 -0.60547,0.332031 -0.83984,0.507812 0.68359,0.332032 1.36719,0.703125 0.68359,0.351563 1.38671,0.859375 0.72266,0.507813 1.44532,1.230469 0.74218,0.722656 1.52343,1.777344 0.80079,1.035156 1.64063,2.460937 0.85937,1.425782 1.77734,3.359375 0.23438,0.46875 0.23438,0.996094 0,0.410156 -0.17578,0.820313 -0.15625,0.410156 -0.44922,0.742187 -0.27344,0.332031 -0.66406,0.546875 -0.39063,0.195313 -0.83985,0.195313 -0.68359,0 -1.13281,-0.507813 -0.44922,-0.507812 -0.85938,-1.328125 -0.41015,-0.820312 -0.85937,-1.855469 -0.42969,-1.035156 -1.07422,-2.089843 -0.70312,-1.132813 -1.5625,-2.148438 -0.83984,-1.015625 -1.79687,-1.757812 -0.95704,-0.742188 -1.97266,-1.171875 -1.01563,-0.449219 -2.03125,-0.449219 h -0.29297 q -0.60547,0 -1.09375,0.117187 -0.46875,0.09766 -0.91797,0.175782 -0.60547,-0.214844 -0.8789,-0.703125 -0.27344,-0.488282 -0.27344,-1.09375 v -0.273438 l -1.5625,6.152344 q -0.0781,0.292969 -0.21485,0.800781 -0.13671,0.507813 -0.3125,1.113281 -0.17578,0.605469 -0.37109,1.269532 -0.17578,0.664062 -0.35156,1.25 -0.15625,0.585937 -0.29297,1.054687 -0.11719,0.46875 -0.17578,0.703125 -0.27344,0.488281 -0.70313,0.761719 -0.41015,0.292969 -0.89843,0.292969 -0.85938,0 -1.19141,-0.507813 -0.33203,-0.527344 -0.33203,-1.210937 0,-0.273438 0.0391,-0.546875 0.0391,-0.292969 0.0977,-0.546875 z m 9.58984,-22.03125 q -0.11719,0.390625 -0.35156,1.132812 -0.21485,0.742188 -0.48828,1.679688 -0.27344,0.9375 -0.58594,2.011718 -0.3125,1.074219 -0.625,2.167969 -0.3125,1.074219 -0.60547,2.089844 -0.29297,1.015625 -0.52734,1.816406 0.39062,-0.507812 1.17187,-0.898437 0.78125,-0.410157 1.75781,-0.761719 0.76172,-0.273438 1.875,-0.761719 1.11329,-0.507812 2.32422,-1.152344 1.23047,-0.644531 2.44141,-1.386718 1.23047,-0.761719 2.1875,-1.542969 0.97656,-0.800781 1.58203,-1.582031 0.60547,-0.800782 0.60547,-1.542969 0,-0.722656 -0.50781,-1.132813 -0.50782,-0.429687 -1.26953,-0.644531 -0.76172,-0.214844 -1.67969,-0.273437 -0.89844,-0.07813 -1.67969,-0.07813 -1.40625,0 -2.8125,0.175781 -1.40625,0.175781 -2.8125,0.683594 z" />
      <path
         id="path4561"
         style="fill:#006221;fill-opacity:1"
         d="m 160.3457,70.383347 q 0.17578,-0.761719 0.41016,-1.679688 0.25391,-0.9375 0.52734,-1.933594 0.29297,-0.996093 0.58594,-2.011718 0.29297,-1.015625 0.56641,-1.953125 0.29297,-0.9375 0.52734,-1.738282 0.23438,-0.820312 0.41016,-1.386718 0.37109,-1.269532 0.70312,-2.539063 0.33203,-1.289062 0.64453,-2.695312 0.39063,-0.761719 1.05469,-1.074219 0.66406,-0.332031 1.44531,-0.332031 0.625,0.332031 0.97657,0.917968 0.37109,0.566407 0.37109,1.289063 0,0.507812 -0.17578,1.171875 -0.15625,0.644531 -0.41016,1.40625 -0.2539,0.742187 -0.5664,1.582031 -0.3125,0.820313 -0.60547,1.699219 -0.54688,1.601562 -1.09375,3.203125 -0.54688,1.601562 -1.07422,3.378906 -0.13672,0.46875 -0.29297,0.9375 -0.15625,0.46875 -0.33203,1.015625 -0.15625,0.546875 -0.35156,1.230469 -0.19532,0.664062 -0.39063,1.542969 -0.23437,1.035156 -0.41016,2.089843 -0.17578,1.035157 -0.33203,2.089844 -0.15625,1.054688 -0.35156,2.128906 -0.19531,1.074219 -0.46875,2.167969 -0.0977,0.390625 -0.35156,0.703125 -0.23438,0.292969 -0.54688,0.507813 -0.3125,0.214843 -0.66406,0.332031 -0.35156,0.117187 -0.66406,0.117187 -0.3125,0 -0.60547,-0.05859 -0.27344,-0.03906 -0.42969,-0.214844 -0.23437,-0.253906 -0.37109,-0.566406 -0.13672,-0.3125 -0.13672,-0.664063 0,-0.09766 0,-0.175781 0.0195,-0.09766 0.0391,-0.195313 z" />
      <path
         id="path4563"
         style="fill:#006221;fill-opacity:1"
         d="m 186.71289,81.809128 q -0.41016,0 -0.72266,-0.15625 -0.3125,-0.15625 -0.52734,-0.410156 -0.19531,-0.253907 -0.3125,-0.585938 -0.0977,-0.332031 -0.0977,-0.664062 0,-0.292969 0.15625,-0.800782 0.15625,-0.527343 0.39063,-1.171875 0.25391,-0.644531 0.54687,-1.347656 0.29297,-0.703125 0.56641,-1.347656 0.27344,-0.644531 0.46875,-1.191406 0.19531,-0.546875 0.27344,-0.859375 0.0781,-0.351563 0.19531,-0.839844 0.11719,-0.488281 0.25391,-1.054688 0.15625,-0.585937 0.29297,-1.210937 0.15625,-0.644531 0.3125,-1.289063 -0.27344,0.05859 -0.6836,0.117188 -0.39062,0.03906 -0.83984,0.07813 -0.64453,0.05859 -1.26953,0.175781 -0.625,0.117188 -1.28907,0.273438 -0.64453,0.136718 -1.34765,0.3125 -0.70313,0.15625 -1.50391,0.332031 -1.17187,0.253906 -2.34375,0.566406 -1.17187,0.3125 -2.4414,0.3125 -0.39063,0 -0.72266,-0.195312 -0.33203,-0.214844 -0.74219,-0.3125 -0.39062,0.625 -0.74219,1.347656 -0.35156,0.703125 -0.64453,1.464844 -0.29297,0.742187 -0.52734,1.484375 -0.23438,0.722656 -0.41016,1.367187 -0.0976,0.351563 -0.17578,0.917969 -0.0586,0.546875 -0.11719,1.132812 -0.0586,0.566407 -0.11718,1.09375 -0.0586,0.527344 -0.11719,0.839844 -0.0586,0.292969 -0.23438,0.585938 -0.17578,0.273437 -0.42968,0.507812 -0.25391,0.234375 -0.56641,0.371094 -0.3125,0.15625 -0.625,0.15625 -0.54687,0 -0.89844,-0.3125 -0.33203,-0.332031 -0.54687,-0.800781 -0.19531,-0.488282 -0.27344,-1.054688 -0.0781,-0.566406 -0.0781,-1.035156 0,-1.191406 0.29296,-2.460938 0.29297,-1.289062 0.78125,-2.597656 0.50782,-1.328125 1.17188,-2.65625 0.68359,-1.347656 1.46484,-2.675781 0.64453,-1.191406 1.60157,-2.753906 0.95703,-1.5625 2.1289,-3.203125 1.19141,-1.660157 2.5586,-3.242188 1.38671,-1.582031 2.87109,-2.8125 1.48437,-1.25 3.04687,-2.011719 1.5625,-0.761718 3.10547,-0.761718 1.6211,0 2.69532,0.585937 1.09375,0.585938 1.73828,1.582031 0.64453,0.996094 0.89843,2.324219 0.27344,1.328125 0.27344,2.8125 0,1.308594 -0.17578,2.695313 -0.15625,1.386718 -0.41016,2.714843 -0.23437,1.328125 -0.52734,2.558594 -0.27344,1.230469 -0.50781,2.226563 l -0.6836,2.65625 q -0.0391,0.117187 -0.15625,0.46875 -0.0976,0.351562 -0.27343,0.859375 -0.15625,0.488281 -0.3711,1.074218 -0.19531,0.566407 -0.41015,1.132813 -0.19532,0.546875 -0.39063,1.015625 -0.17578,0.46875 -0.3125,0.761719 l 0.0195,-0.01953 q -0.13672,0.507813 -0.29297,1.035157 -0.15625,0.527343 -0.42968,0.957031 -0.27344,0.410156 -0.70313,0.683594 -0.42969,0.253906 -1.11328,0.253906 z m 0.99609,-24.453125 q -0.8789,0 -1.75781,0.371094 -0.85937,0.351562 -1.69922,0.9375 -0.83984,0.585937 -1.64062,1.367187 -0.78125,0.78125 -1.50391,1.601563 -0.70312,0.820312 -1.32812,1.660156 -0.625,0.820312 -1.13282,1.523437 -0.0781,0.117188 -0.21484,0.3125 -0.11719,0.175782 -0.25391,0.410157 -0.11718,0.214843 -0.23437,0.46875 -0.11719,0.234375 -0.19531,0.429687 h 2.01172 q 1.09375,0 2.5,-0.15625 1.40625,-0.15625 2.77343,-0.371094 1.38672,-0.214843 2.53907,-0.429687 1.15234,-0.234375 1.73828,-0.351563 0.0781,-0.253906 0.13672,-0.683593 0.0781,-0.429688 0.13671,-0.957032 0.0586,-0.527343 0.0781,-1.113281 0.0391,-0.605469 0.0391,-1.230469 0,-0.507812 -0.0391,-1.152343 -0.0391,-0.664063 -0.23438,-1.25 -0.19531,-0.585938 -0.60546,-0.976563 -0.39063,-0.410156 -1.11329,-0.410156 z" />
    </g>
    <g
       id="flowRoot4543"
       style="font-style:normal;font-variant:normal;font-weight:normal;font-stretch:normal;font-size:39.99936676px;line-height:1.25;font-family:'MV Boli';-inkscape-font-specification:'MV Boli, Normal';font-variant-ligatures:normal;font-variant-caps:normal;font-variant-numeric:normal;font-feature-settings:normal;text-align:start;letter-spacing:0px;word-spacing:0px;writing-mode:lr-tb;text-anchor:start;fill:#006221;fill-opacity:1;stroke:none"
       transform="matrix(0.16303295,-0.05933914,0.05933914,0.16303295,12.240506,270.83019)"
       aria-label="di Mario
">
      <path
         id="path4566"
         style=""
         d="m 1.0878334,74.894611 q 0.2539023,-1.054671 0.664052,-2.109341 0.4296807,-1.054671 1.0546708,-2.089811 0.6249901,-1.03514 1.4843515,-2.011687 0.8593614,-0.996078 2.0116869,-1.894501 0.7812376,-0.62499 1.640599,-1.171857 0.8788924,-0.566397 1.7773157,-0.976547 0.8984237,-0.410149 1.7968467,-0.644521 0.917954,-0.253902 1.796846,-0.253902 0.644521,0 1.132795,0.117186 0.507804,0.09765 0.957016,0.292964 0.195309,-0.683583 1.03514,-3.671817 0.859361,-2.988234 2.089811,-8.320181 0.21484,-0.527335 0.605459,-0.878892 0.390619,-0.351557 0.937485,-0.351557 0.390619,0 0.761707,0.07812 0.371087,0.05859 0.664052,0.273433 0.292964,0.195309 0.468742,0.546866 0.175779,0.351557 0.175779,0.917954 L 18.216469,68.42987 q -0.175779,0.664052 -0.332026,1.796846 -0.156248,1.113264 -0.292965,2.363244 -0.136716,1.24998 -0.21484,2.48043 -0.07812,1.210918 -0.07812,2.08981 0,1.093733 -0.253902,2.167935 -0.117186,0.468742 -0.253902,0.800768 -0.117186,0.312495 -0.332026,0.527336 -0.214841,0.195309 -0.546867,0.292964 -0.312495,0.07812 -0.800768,0.07812 -0.566397,0 -0.878892,-0.117186 -0.312495,-0.117186 -0.468743,-0.312495 -0.156248,-0.21484 -0.195309,-0.468743 -0.01953,-0.273433 -0.03906,-0.566397 0,-0.312495 -0.03906,-0.62499 -0.01953,-0.332026 -0.156248,-0.62499 -0.234371,0.156247 -0.644521,0.41015 -0.410149,0.253902 -0.83983,0.527335 -0.41015,0.253902 -0.781238,0.488274 -0.371088,0.21484 -0.546866,0.312495 -0.449212,0.253902 -1.0156091,0.546866 -0.5663973,0.273433 -1.2304493,0.527335 -0.644521,0.234372 -1.3671658,0.390619 -0.7031139,0.156248 -1.4257587,0.156248 -0.8788923,0 -1.7187228,-0.292964 Q 2.9432728,81.085919 2.2792208,80.48046 1.6346998,79.875001 1.2440809,78.957047 0.85346213,78.019562 0.85346213,76.769582 q 0,-0.449212 0.0390619,-0.878893 0.0585928,-0.449211 0.19530938,-0.996078 z m 3.3788528,-0.156247 q -0.1562475,0.585928 -0.1562475,1.132794 0,0.566398 0.097655,1.074202 0.097655,0.488274 0.3515569,0.859361 0.2734332,0.371088 0.7031139,0.60546 0.4492116,0.21484 1.1523255,0.21484 0.3906188,0 0.8398304,-0.136717 0.4492117,-0.136716 0.8788924,-0.332026 0.4492116,-0.21484 0.8202995,-0.42968 0.3906188,-0.234372 0.664052,-0.41015 0.742176,-0.488274 1.367166,-0.957016 0.644521,-0.468743 1.152325,-1.015609 0.507805,-0.546867 0.878893,-1.210918 0.390618,-0.683583 0.62499,-1.562476 0.195309,-0.781237 0.332026,-1.425758 0.156247,-0.644521 0.273433,-1.249981 0.117186,-0.62499 0.21484,-1.269511 0.09765,-0.644521 0.19531,-1.425758 -0.09765,-0.117186 -0.273433,-0.214841 -0.156248,-0.117185 -0.488274,-0.117185 -0.781238,0 -1.718723,0.273433 -0.937485,0.253902 -1.933563,0.742175 -0.976547,0.488274 -1.9335631,1.191388 -0.9374851,0.703114 -1.7577846,1.582006 -0.8007686,0.859361 -1.4062278,1.894501 -0.6054591,1.03514 -0.8788923,2.187466 z" />
      <path
         id="path4568"
         style=""
         d="m 23.138265,78.019562 q 0.292964,-1.132795 0.703114,-2.636677 0.410149,-1.503883 0.859361,-3.183544 0.468743,-1.679661 0.937485,-3.437445 0.468743,-1.757785 0.878893,-3.417915 0.01953,-0.07812 0.136716,-0.253902 0.117186,-0.195309 0.332026,-0.371088 0.21484,-0.195309 0.546866,-0.332026 0.332026,-0.136717 0.781238,-0.136717 0.332026,0 0.644521,0.07812 0.312495,0.05859 0.546866,0.19531 0.253903,0.136716 0.390619,0.371088 0.156248,0.21484 0.156248,0.507804 0,0.05859 0,0.136717 0,0.05859 -0.01953,0.117185 l -0.546866,2.07028 q -0.917955,3.476507 -1.874971,6.972546 -0.937485,3.496038 -1.835908,7.011608 -0.03906,0.117185 -0.117186,0.292964 -0.07812,0.175778 -0.21484,0.351557 -0.136717,0.175778 -0.332026,0.292964 -0.19531,0.117185 -0.468743,0.117185 -0.507804,0 -0.898423,-0.21484 -0.390619,-0.195309 -0.664052,-0.507804 -0.273433,-0.312496 -0.41015,-0.683583 -0.136716,-0.371088 -0.136716,-0.703114 0,-0.09766 0,-0.175779 0,-0.07812 0.03906,-0.175778 z M 28.23584,57.805038 q 0.09765,-0.41015 0.351557,-0.996078 0.253902,-0.585928 0.898424,-1.054671 0.312495,-0.175778 0.761706,-0.312495 0.449212,-0.156247 0.644521,-0.156247 0.19531,0 0.390619,0.136716 0.21484,0.136717 0.371088,0.292964 0.195309,0.19531 0.371088,0.429681 0.488273,0.03906 0.62499,0.351557 0.156247,0.312495 0.156247,0.742176 0,0.312495 -0.05859,0.566397 -0.05859,0.253902 -0.09765,0.41015 -0.117186,0.41015 -0.449212,0.761706 -0.332026,0.332026 -0.761706,0.585929 -0.429681,0.234371 -0.898424,0.371088 -0.468742,0.136716 -0.820299,0.136716 -0.449212,0 -0.703114,-0.156247 -0.234371,-0.156248 -0.605459,-0.664052 -0.214841,-0.292964 -0.253902,-0.449212 -0.01953,-0.175778 -0.01953,-0.292964 0,-0.21484 0.01953,-0.371088 0.03906,-0.175778 0.07812,-0.332026 z" />
      <path
         id="path4570"
         style=""
         d="m 51.926872,79.875001 q 0.371088,-1.484351 1.03514,-3.300729 0.664052,-1.816377 1.523414,-3.789002 0.878892,-1.972625 1.914032,-4.003843 1.054671,-2.031218 2.167934,-3.94525 1.132795,-1.933563 2.304651,-3.632755 1.191388,-1.718723 2.343713,-3.066358 0.332026,-0.371088 0.8203,-0.917954 0.507804,-0.546867 1.113263,-1.132795 0.62499,-0.585928 1.289042,-1.152325 0.683583,-0.585929 1.367166,-1.03514 0.683583,-0.468743 1.328104,-0.742176 0.644521,-0.292964 1.191388,-0.292964 0.742175,0 1.347634,0.253902 0.624991,0.253902 1.054671,0.722645 0.449212,0.468743 0.683583,1.132795 0.253902,0.644521 0.253902,1.425758 0,0.332026 -0.05859,0.664052 -0.03906,0.332026 -0.117186,0.683583 L 71.321096,68.64471 q 0.292965,-0.449211 0.8203,-1.210918 0.527335,-0.781238 1.191387,-1.718723 0.664052,-0.957016 1.386697,-1.972625 0.722645,-1.03514 1.406228,-1.992156 0.703114,-0.957016 1.289042,-1.738254 0.585928,-0.800768 0.957016,-1.289042 l 0.351557,-0.449211 q 0.351557,-0.449212 0.859361,-1.054671 0.507805,-0.605459 1.113264,-1.269511 0.62499,-0.664052 1.308573,-1.308573 0.683583,-0.644521 1.386697,-1.152326 0.703114,-0.507804 1.386697,-0.820299 0.683583,-0.332026 1.308573,-0.332026 0.468742,0 0.781237,0.21484 0.312495,0.21484 0.507805,0.585928 0.195309,0.351557 0.273433,0.839831 0.07812,0.488273 0.07812,1.015609 0,0.820299 -0.136717,1.660129 -0.136716,0.839831 -0.312495,1.523414 -0.09765,0.546866 -0.273433,1.562475 -0.156248,1.015609 -0.390619,2.343713 -0.21484,1.308573 -0.468742,2.851517 -0.253903,1.523414 -0.527336,3.10542 -0.253902,1.582006 -0.527335,3.124951 -0.253902,1.542944 -0.488274,2.890579 -0.21484,1.328104 -0.41015,2.382775 -0.175778,1.05467 -0.292964,1.640599 -0.05859,0.273433 -0.195309,0.742175 -0.117186,0.468743 -0.371088,0.917955 -0.234371,0.449211 -0.644521,0.781237 -0.390619,0.332026 -0.976547,0.332026 -0.312495,0 -0.605459,-0.195309 -0.273433,-0.214841 -0.507805,-0.527336 -0.21484,-0.312495 -0.351557,-0.664052 -0.117185,-0.371088 -0.136716,-0.664052 L 84.172456,59.50423 q 0.05859,-0.273433 0.09765,-0.488274 0.03906,-0.21484 0.03906,-0.410149 0,-0.214841 -0.05859,-0.390619 -0.03906,-0.175779 -0.07812,-0.332026 -0.05859,-0.175779 -0.117186,-0.312495 -0.878892,0.664052 -1.894501,1.699192 -0.996078,1.015608 -2.031218,2.28512 -1.015609,1.24998 -2.050749,2.675739 -1.015609,1.406227 -1.933563,2.831986 -0.722645,1.113264 -1.562475,2.343713 -0.8203,1.230449 -1.66013,2.480429 -0.839831,1.23045 -1.640599,2.48043 -0.781238,1.230449 -1.425759,2.363244 -0.312495,0.546866 -0.644521,1.406227 -0.332026,0.859362 -0.742176,1.679661 -0.390619,0.8203 -0.859361,1.406228 -0.449212,0.585928 -1.03514,0.585928 -0.449212,0 -0.761707,-0.136716 -0.292964,-0.136717 -0.468742,-0.351557 -0.175779,-0.234372 -0.253903,-0.527336 -0.07812,-0.312495 -0.07812,-0.664052 0,-0.449211 0.07812,-0.898423 0.09766,-0.449212 0.19531,-0.859361 0.41015,-1.718723 0.859361,-3.417915 0.449212,-1.699192 0.917954,-3.476507 0.488274,-1.777316 0.996078,-3.671817 0.507805,-1.914033 1.03514,-4.062436 0.136717,-0.605459 0.312495,-1.347635 0.175779,-0.761707 0.332026,-1.523413 0.156248,-0.781238 0.253903,-1.503883 0.09765,-0.722645 0.09765,-1.289042 0,-0.507804 -0.07812,-0.800768 -0.07812,-0.312495 -0.292964,-0.312495 -0.722644,0 -1.523413,0.546866 -0.800769,0.527335 -1.621068,1.406228 -0.8203,0.878892 -1.621068,2.011687 -0.800769,1.132794 -1.523414,2.343712 -0.722644,1.191388 -1.347635,2.363244 -0.62499,1.171857 -1.074201,2.109342 -0.09766,0.195309 -0.292964,0.546866 -0.175779,0.332026 -0.488274,0.957016 -0.292964,0.605459 -0.742176,1.562476 -0.42968,0.957016 -1.03514,2.421836 -0.585928,1.464821 -1.367165,3.496039 -0.781238,2.031217 -1.757785,4.765549 -0.175778,0.468743 -0.62499,0.761707 -0.429681,0.292964 -0.898423,0.292964 -1.015609,0 -1.503883,-0.546866 -0.468742,-0.546867 -0.468742,-1.347635 0,-0.351557 0.09765,-0.781238 z" />
      <path
         id="path4572"
         style=""
         d="m 99.387057,80.753893 q 0,-0.566397 0.136717,-1.347634 0.136716,-0.800769 0.136716,-1.972625 -0.644521,0.468742 -1.425758,1.113263 -0.781238,0.644521 -1.621068,1.230449 -0.839831,0.585929 -1.679661,0.996078 -0.8203,0.390619 -1.542945,0.390619 -0.585928,0 -1.113263,-0.175778 -0.527336,-0.175779 -0.898424,-0.468743 -1.035139,-0.820299 -1.503882,-1.640599 -0.449212,-0.820299 -0.449212,-1.914032 0,-0.488274 0.07812,-1.015609 0.09766,-0.527335 0.273433,-1.210918 0.742176,-3.085889 2.539023,-5.703035 1.816377,-2.636677 4.492116,-4.492116 1.03514,-0.722645 2.07028,-0.917955 1.03514,-0.21484 2.050747,-0.21484 0.44921,0 0.99608,0.05859 0.5664,0.05859 1.01561,0.117185 0.44921,-0.09765 0.72264,-0.136716 0.29297,-0.03906 0.60546,-0.03906 0.58593,0 0.97655,0.156248 0.39062,0.156247 0.62499,0.42968 0.23437,0.253902 0.33203,0.605459 0.11718,0.332026 0.11718,0.703114 0,0.507805 -0.15625,0.976547 -0.15624,0.449212 -0.31249,0.917955 l -2.57809,10.292805 q -0.0781,0.839831 -0.13671,1.542945 -0.0586,0.703114 -0.23437,1.308573 -0.0586,0.175778 -0.15625,0.449211 -0.0781,0.253903 -0.27343,0.507805 -0.19531,0.234371 -0.48828,0.41015 -0.29296,0.175778 -0.7617,0.175778 -0.60546,0 -0.97655,-0.07812 -0.351558,-0.07812 -0.546868,-0.21484 -0.195309,-0.156248 -0.253902,-0.351557 -0.05859,-0.21484 -0.05859,-0.488274 z m -6.484272,-5.898344 q -0.07812,0.273433 -0.175779,0.781238 -0.07812,0.507804 -0.07812,1.015609 0,0.527335 0.156247,0.957016 0.156248,0.41015 0.683583,0.41015 0.8203,0 1.523413,-0.351557 0.722645,-0.371088 1.347635,-0.878893 0.839831,-0.683582 1.699192,-1.523413 0.878893,-0.859361 1.640599,-1.796846 0.781238,-0.937486 1.367168,-1.914033 0.60546,-0.996078 0.87889,-1.972625 0.15625,-0.566397 0.2539,-1.308573 0.11719,-0.742175 0.11719,-1.328104 0,-0.253902 -0.11719,-0.488273 -0.11718,-0.253902 -0.44921,-0.253902 -0.95702,0 -1.933562,0.371087 -0.957016,0.371088 -1.855439,0.996078 -0.898424,0.624991 -1.718723,1.484352 -0.800769,0.83983 -1.464821,1.816377 -0.664052,0.957016 -1.152325,1.992156 -0.468743,1.015609 -0.722645,1.992156 z" />
      <path
         id="path4574"
         style=""
         d="m 109.66033,79.582037 q 0.25391,-1.367166 0.58593,-3.007765 0.33203,-1.640599 0.68358,-3.32026 0.35156,-1.679661 0.68359,-3.300729 0.33202,-1.621068 0.56639,-2.968703 -0.0195,-0.195309 -0.0195,-0.332026 0,-0.156247 0,-0.332026 0,-0.605459 0.0781,-1.210918 0.0781,-0.605459 0.21484,-1.113264 0.21484,-0.742176 0.46874,-0.996078 0.27343,-0.273433 0.85936,-0.273433 0.5664,0 0.89843,0.234371 0.35155,0.214841 0.54686,0.585929 0.19531,0.371087 0.2539,0.859361 0.0586,0.468743 0.0586,0.976547 0,0.273433 -0.0195,0.605459 -0.0195,0.332026 -0.0195,0.527336 0.54687,-0.566398 1.15233,-1.152326 0.62499,-0.605459 1.30857,-1.074202 0.70312,-0.488273 1.46482,-0.800768 0.78124,-0.312495 1.62107,-0.312495 0.33203,0 0.64452,0.05859 0.33203,0.05859 0.66406,0.156247 0.39061,0.09766 0.80076,0.273433 0.42968,0.156248 0.8203,0.449212 0.64452,0.488273 1.0742,1.230449 0.44922,0.722645 0.44922,1.484352 0,0.292964 -0.11719,0.644521 -0.11718,0.332026 -0.33203,0.62499 -0.1953,0.273433 -0.46874,0.468742 -0.27343,0.175779 -0.60546,0.175779 -0.33202,0 -0.8203,-0.156248 -0.46874,-0.175778 -0.78123,-0.449211 -0.13672,-0.117186 -0.29297,-0.332026 -0.13671,-0.214841 -0.27343,-0.429681 -0.11719,-0.21484 -0.23437,-0.390619 -0.0977,-0.195309 -0.15625,-0.253902 -0.0976,-0.01953 -0.21484,-0.01953 -0.11719,-0.01953 -0.21484,-0.01953 -0.99608,0 -1.8945,0.507805 -0.89843,0.507804 -1.67966,1.24998 -0.78124,0.722645 -1.44529,1.562475 -0.64452,0.8203 -1.1328,1.484352 -0.39062,1.582006 -0.87889,3.378852 -0.46874,1.777316 -0.93748,3.73041 v 0.488273 q 0,0.585929 -0.0391,1.191388 -0.0391,0.605459 -0.23437,1.074202 -0.21484,0.292964 -0.62499,0.488273 -0.39062,0.21484 -0.91795,0.21484 -0.8203,0 -1.23045,-0.527335 -0.41015,-0.546866 -0.41015,-1.269511 0,-0.332026 0.0977,-0.683583 z" />
      <path
         id="path4576"
         style=""
         d="m 126.26163,78.019562 q 0.29296,-1.132795 0.70311,-2.636677 0.41015,-1.503883 0.85936,-3.183544 0.46875,-1.679661 0.93749,-3.437445 0.46874,-1.757785 0.87889,-3.417915 0.0195,-0.07812 0.13672,-0.253902 0.11718,-0.195309 0.33202,-0.371088 0.21484,-0.195309 0.54687,-0.332026 0.33203,-0.136717 0.78124,-0.136717 0.33202,0 0.64452,0.07812 0.31249,0.05859 0.54686,0.19531 0.25391,0.136716 0.39062,0.371088 0.15625,0.21484 0.15625,0.507804 0,0.05859 0,0.136717 0,0.05859 -0.0195,0.117185 l -0.54687,2.07028 q -0.91795,3.476507 -1.87497,6.972546 -0.93748,3.496038 -1.8359,7.011608 -0.0391,0.117185 -0.11719,0.292964 -0.0781,0.175778 -0.21484,0.351557 -0.13672,0.175778 -0.33203,0.292964 -0.19531,0.117185 -0.46874,0.117185 -0.5078,0 -0.89842,-0.21484 -0.39062,-0.195309 -0.66405,-0.507804 -0.27344,-0.312496 -0.41015,-0.683583 -0.13672,-0.371088 -0.13672,-0.703114 0,-0.09766 0,-0.175779 0,-0.07812 0.0391,-0.175778 z m 5.09757,-20.214524 q 0.0977,-0.41015 0.35156,-0.996078 0.2539,-0.585928 0.89842,-1.054671 0.3125,-0.175778 0.76171,-0.312495 0.44921,-0.156247 0.64452,-0.156247 0.19531,0 0.39062,0.136716 0.21484,0.136717 0.37109,0.292964 0.19531,0.19531 0.37109,0.429681 0.48827,0.03906 0.62499,0.351557 0.15624,0.312495 0.15624,0.742176 0,0.312495 -0.0586,0.566397 -0.0586,0.253902 -0.0976,0.41015 -0.11719,0.41015 -0.44922,0.761706 -0.33202,0.332026 -0.7617,0.585929 -0.42968,0.234371 -0.89843,0.371088 -0.46874,0.136716 -0.82029,0.136716 -0.44922,0 -0.70312,-0.156247 -0.23437,-0.156248 -0.60546,-0.664052 -0.21484,-0.292964 -0.2539,-0.449212 -0.0195,-0.175778 -0.0195,-0.292964 0,-0.21484 0.0195,-0.371088 0.0391,-0.175778 0.0781,-0.332026 z" />
      <path
         id="path4578"
         style=""
         d="m 136.6521,74.113374 q 0.29296,-1.191388 0.89842,-2.519492 0.62499,-1.347635 1.62107,-2.714801 0.99608,-1.367165 2.38277,-2.675738 1.40623,-1.308573 3.24214,-2.441368 0.29296,-0.175779 0.89842,-0.371088 0.60546,-0.21484 1.24998,-0.253902 0.76171,-0.8203 2.05075,-0.8203 1.52341,0 2.55855,0.781238 1.05468,0.761707 1.73826,2.089811 0.21484,0.42968 0.39062,0.83983 0.19531,0.41015 0.31249,0.878892 0.13672,0.449212 0.21484,0.976547 0.0781,0.527336 0.0781,1.191388 0,1.542944 -0.48828,3.144481 -0.48827,1.601537 -1.38669,3.124951 -0.89843,1.523413 -2.18747,2.929641 -1.26951,1.386697 -2.83199,2.49996 -1.05467,0.761707 -2.34371,1.171857 -1.26951,0.429681 -2.85152,0.429681 -1.50388,0 -2.61714,-0.41015 -1.09373,-0.390619 -1.83591,-1.132795 -0.72265,-0.742176 -1.09373,-1.777315 -0.35156,-1.03514 -0.35156,-2.304651 0,-1.23045 0.35156,-2.636677 z m 3.24213,0.253902 q -0.11718,0.449211 -0.17578,0.859361 -0.0391,0.390619 -0.0391,0.761707 0,0.644521 0.15625,1.210918 0.17578,0.546867 0.54687,0.957016 0.37108,0.390619 0.91795,0.62499 0.5664,0.214841 1.36717,0.214841 1.48435,0 2.75386,-0.742176 1.28904,-0.761707 2.28512,-1.894501 0.99608,-1.132795 1.66013,-2.421837 0.68358,-1.308573 0.95702,-2.402306 0.17577,-0.683583 0.29296,-1.289042 0.13672,-0.605459 0.13672,-1.113263 0,-0.507805 -0.19531,-0.937485 -0.17578,-0.449212 -0.46875,-0.996078 -0.17577,-0.332026 -0.35155,-0.683583 -0.17578,-0.371088 -0.3125,-0.722645 -0.15625,0.273433 -0.33202,0.488273 -0.17578,0.19531 -0.52734,0.371088 -0.35156,0.156248 -0.95702,0.292964 -0.60545,0.136717 -1.582,0.234372 -0.64452,0.21484 -1.30857,0.664052 -0.66406,0.449211 -1.30858,1.05467 -0.62499,0.60546 -1.21092,1.308573 -0.56639,0.703114 -1.03514,1.44529 -0.44921,0.722645 -0.80076,1.425759 -0.33203,0.703114 -0.46875,1.289042 z" />
    </g>
  </g>
  <g
     id="layer2" />
</svg>
