<?xml version="1.0" encoding="UTF-8" standalone="no"?>
<!-- Created with Inkscape (http://www.inkscape.org/) -->

<svg
   xmlns:dc="http://purl.org/dc/elements/1.1/"
   xmlns:cc="http://creativecommons.org/ns#"
   xmlns:rdf="http://www.w3.org/1999/02/22-rdf-syntax-ns#"
   xmlns:svg="http://www.w3.org/2000/svg"
   xmlns="http://www.w3.org/2000/svg"
   xmlns:sodipodi="http://sodipodi.sourceforge.net/DTD/sodipodi-0.dtd"
   xmlns:inkscape="http://www.inkscape.org/namespaces/inkscape"
   width="200"
   height="200"
   viewBox="0 0 52.916665 52.916668"
   version="1.1"
   id="svg3686"
   inkscape:version="0.92.1 r15371"
   sodipodi:docname="Zeichnung.svg">
  <title
     id="title3688">Logo Pizzeria Mario Friedrichshain</title>
  <defs
     id="defs3680" />
  <sodipodi:namedview
     id="base"
     pagecolor="#ffffff"
     bordercolor="#666666"
     borderopacity="1.0"
     inkscape:pageopacity="0.0"
     inkscape:pageshadow="2"
     inkscape:zoom="3.959798"
     inkscape:cx="49.278241"
     inkscape:cy="89.282197"
     inkscape:document-units="mm"
     inkscape:current-layer="layer1"
     showgrid="false"
     units="px"
     inkscape:lockguides="true"
     inkscape:window-width="1920"
     inkscape:window-height="1125"
     inkscape:window-x="-9"
     inkscape:window-y="-9"
     inkscape:window-maximized="1" />
  <metadata
     id="metadata3683">
    <rdf:RDF>
      <cc:Work
         rdf:about="">
        <dc:format>image/svg+xml</dc:format>
        <dc:type
           rdf:resource="http://purl.org/dc/dcmitype/StillImage" />
        <dc:title>Logo Pizzeria Mario Friedrichshain</dc:title>
      </cc:Work>
    </rdf:RDF>
  </metadata>
  <g
     inkscape:label="Ebene 1"
     inkscape:groupmode="layer"
     id="layer1"
     transform="translate(0,-244.08332)">
    <path
       style="fill:#df0024;fill-opacity:1;stroke-width:0.25917462"
       d="m 26.292662,251.43046 a 19.210007,19.210007 0 0 0 -19.2101026,19.2101 19.210007,19.210007 0 0 0 19.2101026,19.2101 19.210007,19.210007 0 0 0 19.2101,-19.2101 19.210007,19.210007 0 0 0 -19.2101,-19.2101 z m 0,2.71862 A 16.491327,16.491327 0 0 1 42.784143,270.64056 16.491327,16.491327 0 0 1 26.292662,287.13204 16.491327,16.491327 0 0 1 9.8011794,270.64056 16.491327,16.491327 0 0 1 26.292662,254.14908 Z"
       id="path3690"
       inkscape:connector-curvature="0" />
    <path
       style="font-style:normal;font-variant:normal;font-weight:normal;font-stretch:normal;font-size:40px;line-height:1.25;font-family:'MV Boli';-inkscape-font-specification:'MV Boli';letter-spacing:0px;word-spacing:0px;fill:#fffffa;fill-opacity:1;stroke:none;stroke-width:0.27742884"
       d="m 3.2887325,272.42598 c -0.8046883,0.3045 -0.554162,1.27044 -1.2003984,1.71299 -0.4226539,0.76773 0.2934291,1.52296 0.734777,1.89838 0.012964,2.11136 0.210504,4.26219 0.4426287,6.33173 1.0098279,1.77933 2.708939,-0.59478 1.8982383,-1.86551 -0.4718146,-0.9718 0.1029154,-1.46412 0.9345395,-1.82322 1.6101198,-1.04523 3.9236664,-2.84482 2.9894543,-5.0374 -0.8646459,-1.75576 -3.2332798,-1.35642 -4.7240016,-0.98614 -0.2891908,-0.25348 -0.7067134,-0.39093 -1.0752378,-0.23083 z M 16.916034,268.1211 c -1.45234,0.5543 -2.79256,1.46565 -4.040193,2.32795 -0.731542,1.10576 0.844992,2.46472 1.81011,1.51161 0.631278,-0.49191 1.325414,-1.04711 1.971271,-1.42962 -1.188584,2.44442 -2.843345,4.71221 -3.81899,7.237 -0.256615,1.14873 1.152574,1.84096 2.00128,1.11796 2.159298,-1.39033 5.423514,-2.1328 6.03248,-5.02112 -0.14188,-1.51092 -2.073505,-0.74503 -2.267971,0.31977 -0.639682,0.78453 -1.616923,1.14446 -2.484197,1.60939 1.077425,-2.31462 2.758094,-4.40647 3.582136,-6.8152 0.02425,-1.53401 -1.841462,-1.44733 -2.785926,-0.85774 z m 8.615248,-3.1357 c -1.45234,0.55431 -2.79256,1.46566 -4.040193,2.32796 -0.731542,1.10576 0.844992,2.46472 1.81011,1.5116 0.631279,-0.4919 1.325415,-1.04711 1.971271,-1.42962 -1.188584,2.44443 -2.843344,4.71221 -3.818989,7.23701 -0.256616,1.14873 1.152574,1.84096 2.00128,1.11796 2.159298,-1.39033 5.423513,-2.13281 6.032478,-5.02112 -0.141879,-1.51092 -2.073504,-0.74503 -2.267969,0.31977 -0.639682,0.78452 -1.616924,1.14445 -2.484198,1.60939 1.077425,-2.31463 2.758094,-4.40648 3.582136,-6.81521 0.02425,-1.534 -1.841462,-1.44732 -2.785926,-0.85774 z m 10.962085,-3.98814 c -1.338592,0.49737 -0.521383,2.0652 -0.336134,2.99914 0.396418,2.00021 0.0462,4.2094 0.783748,6.11243 0.707122,0.99136 2.225985,-0.14556 1.732052,-1.18225 -0.02414,-0.92835 -0.538441,-2.52931 0.898187,-2.35953 1.518501,-0.029 2.038509,2.16901 3.528328,1.91839 1.215761,-0.44989 0.782618,-2.10662 -0.227544,-2.55006 -0.611665,-0.51701 -1.281223,-1.0048 -2.058625,-1.23433 1.151509,-1.05889 2.07856,-3.35753 0.391137,-4.38634 -1.602763,-0.87183 -3.144256,0.54251 -4.711149,0.68255 z m -26.221298,9.81537 c -1.5618728,0.63636 -0.4481871,2.60216 -0.6373215,3.82361 0.2231947,1.76668 0.091592,3.70417 0.7436335,5.35624 0.935513,1.06691 2.385293,-0.51756 1.78165,-1.59413 -0.686708,-2.27094 -0.149878,-4.7082 -0.656001,-6.97659 -0.224776,-0.41675 -0.768589,-0.76805 -1.231961,-0.60913 z m 33.849984,-12.32039 c -1.561874,0.63636 -0.448189,2.60217 -0.637324,3.82361 0.223195,1.76668 0.09159,3.70417 0.743634,5.35625 0.935513,1.0669 2.385294,-0.51757 1.78165,-1.59414 -0.686709,-2.27094 -0.149878,-4.7082 -0.656,-6.97658 -0.224776,-0.41675 -0.768591,-0.76805 -1.23196,-0.60914 z m 5.32712,-1.82128 c -2.296836,1.34388 -2.59101,4.40558 -2.986071,6.77989 -0.142607,1.17589 0.0099,3.50571 1.680261,3.25242 1.496411,-0.6339 -0.09539,-2.51434 0.606834,-3.39925 0.791787,-0.32189 1.441102,-0.90538 2.182123,-1.32242 0.169204,1.04577 -0.510628,3.29538 1.22144,3.24182 1.460077,-0.33909 0.818713,-2.14048 0.92609,-3.18907 -0.29302,-1.84213 -0.161939,-4.54276 -2.159772,-5.4634 -0.481659,-0.1653 -1.009672,-0.0973 -1.470905,0.10001 z m -15.598991,5.73177 c -0.932945,0.1705 -1.636738,1.35813 -2.520742,1.22539 -1.556867,-0.19994 -1.460602,1.83384 -1.369451,2.85974 0.339553,1.94036 -0.09095,3.98949 0.543133,5.86325 0.989324,1.2644 2.68245,-0.0902 3.58169,-0.80439 1.024986,-0.48755 2.906416,-3.09543 0.759437,-3.16981 -1.12697,0.27374 -1.568457,1.64328 -2.588236,2.02379 -0.423317,-1.14447 1.233277,-1.45888 1.720528,-2.26903 1.0476,-0.30234 2.428417,-2.48071 0.623393,-2.65508 -0.974455,0.28447 -1.673689,1.13644 -2.507557,1.67037 -0.398937,-1.76844 1.75224,-2.29798 2.851275,-3.1246 0.508739,-0.18692 1.149084,-1.02408 -0.0011,-0.567 0.393938,-0.98296 0.943386,0.39774 0.762745,-0.74181 -0.270116,-0.81819 -1.27047,-0.58966 -1.855124,-0.31082 z M 5.8423418,274.48636 c 0.5392202,-0.4063 2.2910319,-0.18486 1.2231943,0.70863 -0.6183316,0.72572 -1.3609346,1.29703 -2.1720229,1.82387 0.1033357,-1.01226 -0.5388655,-2.44256 0.9488286,-2.5325 z M 39.391746,262.34457 c 1.220855,-0.56036 0.09965,0.84707 -0.213063,1.19217 -0.78027,1.18177 -1.072473,0.69619 -0.980488,-0.58995 0.279669,-0.29909 0.797344,-0.45211 1.193551,-0.60222 z m 10.848591,-3.61239 c 0.579664,0.74498 0.307097,1.40227 -0.626384,1.62343 -0.92108,0.61844 -0.0081,-1.05007 0.357752,-1.42994 0.07539,-0.0656 0.171642,-0.18126 0.268632,-0.19349 z"
       id="flowRoot4529"
       inkscape:connector-curvature="0" />
    <flowRoot
       xml:space="preserve"
       id="flowRoot4502"
       style="font-style:normal;font-variant:normal;font-weight:normal;font-stretch:normal;font-size:40px;line-height:1.25;font-family:'MV Boli';-inkscape-font-specification:'MV Boli';letter-spacing:0px;word-spacing:0px;fill:#006221;fill-opacity:1;stroke:none"
       transform="matrix(0.26069782,-0.09488625,0.09488625,0.26069782,-4.2862737,261.04183)"><flowRegion
         id="flowRegion4504"
         style="font-style:normal;font-variant:normal;font-weight:normal;font-stretch:normal;font-family:'MV Boli';-inkscape-font-specification:'MV Boli';fill:#006221;fill-opacity:1"><rect
           id="rect4506"
           width="210.86934"
           height="49.750008"
           x="-2.5253823"
           y="46.204277"
           style="font-style:normal;font-variant:normal;font-weight:normal;font-stretch:normal;font-family:'MV Boli';-inkscape-font-specification:'MV Boli';fill:#006221;fill-opacity:1" /></flowRegion><flowPara
         id="flowPara4508"
         style="fill:#006221;fill-opacity:1">PIZZERIA</flowPara></flowRoot>    <flowRoot
       transform="matrix(0.16303295,-0.05933914,0.05933914,0.16303295,12.240506,270.83019)"
       style="font-style:normal;font-variant:normal;font-weight:normal;font-stretch:normal;font-size:39.99936676px;line-height:1.25;font-family:'MV Boli';-inkscape-font-specification:'MV Boli, Normal';font-variant-ligatures:normal;font-variant-caps:normal;font-variant-numeric:normal;font-feature-settings:normal;text-align:start;letter-spacing:0px;word-spacing:0px;writing-mode:lr-tb;text-anchor:start;fill:#006221;fill-opacity:1;stroke:none"
       id="flowRoot4543"
       xml:space="preserve"><flowRegion
         style="font-style:normal;font-variant:normal;font-weight:normal;font-stretch:normal;font-size:39.99936676px;font-family:'MV Boli';-inkscape-font-specification:'MV Boli, Normal';font-variant-ligatures:normal;font-variant-caps:normal;font-variant-numeric:normal;font-feature-settings:normal;text-align:start;writing-mode:lr-tb;text-anchor:start;fill:#006221;fill-opacity:1"
         id="flowRegion4539"><rect
           style="font-style:normal;font-variant:normal;font-weight:normal;font-stretch:normal;font-size:39.99936676px;font-family:'MV Boli';-inkscape-font-specification:'MV Boli, Normal';font-variant-ligatures:normal;font-variant-caps:normal;font-variant-numeric:normal;font-feature-settings:normal;text-align:start;writing-mode:lr-tb;text-anchor:start;fill:#006221;fill-opacity:1"
           y="46.204277"
           x="-2.5253823"
           height="49.750008"
           width="210.86934"
           id="rect4537" /></flowRegion><flowPara
         id="flowPara4545">di Mario</flowPara><flowPara
         id="flowPara4547"></flowPara></flowRoot>  </g>
  <g
     inkscape:groupmode="layer"
     id="layer2"
     inkscape:label="Ebene 2" />
</svg>
